<?xml version="1.0" encoding="utf-8"?>
<!-- Generator: Adobe Illustrator 21.0.0, SVG Export Plug-In . SVG Version: 6.00 Build 0)  -->
<svg version="1.1" id="Layer_1" xmlns="http://www.w3.org/2000/svg" xmlns:xlink="http://www.w3.org/1999/xlink" x="0px" y="0px"
	 viewBox="0 0 24 24" style="enable-background:new 0 0 24 24;" xml:space="preserve">
<style type="text/css">
	.st0{fill:#FFFFFF;}
</style>
<g>
	<g>
		<path class="st0" d="M16.3,23.1H3.4c-0.8,0-1.5-0.7-1.5-1.5c0-1.4,1-2.6,2.4-2.8l4-0.6l-7.5-7.5c-0.4-0.4-0.7-1-0.7-1.6
			S0.4,8,0.8,7.5C1.1,7.2,1.5,7,2,6.9C1.1,6,1.2,4.6,2,3.8s2.2-0.9,3.1-0.1c0.1-0.4,0.3-0.8,0.6-1.2c0.9-0.9,2.3-0.9,3.2,0l0.2,0.2
			c0.1-0.4,0.3-0.8,0.6-1.2c0.9-0.9,2.3-0.9,3.2,0l9,9c1.2,1.2,1.9,2.9,1.9,4.6s-0.7,3.4-1.9,4.6l-1.8,1.8
			C19.2,22.6,17.8,23.1,16.3,23.1z M2.4,7.9C2.1,7.9,1.7,8,1.5,8.2C1,8.7,1,9.5,1.5,10l8.2,8.2c0.1,0.1,0.2,0.3,0.1,0.5
			c-0.1,0.2-0.2,0.3-0.4,0.3l-5,0.7c-0.9,0.1-1.6,0.9-1.6,1.8c0,0.3,0.2,0.5,0.5,0.5h12.9c1.2,0,2.3-0.5,3.2-1.3l1.8-1.8
			c1-1,1.6-2.4,1.6-3.9s-0.6-2.9-1.6-3.9l-9-9c-0.5-0.5-1.3-0.5-1.8,0S10,3.5,10.5,4l4.8,4.8c0.1,0.1,0.1,0.2,0.1,0.4s0,0.3-0.1,0.4
			c-0.2,0.2-0.5,0.2-0.7,0L8.3,3.2C7.8,2.8,7,2.8,6.5,3.2C6,3.7,6,4.5,6.5,5l6.2,6.2c0.1,0.1,0.1,0.2,0.1,0.4s0,0.3-0.1,0.4
			c-0.2,0.2-0.5,0.2-0.7,0L4.5,4.5C4,4,3.2,4,2.7,4.5s-0.5,1.3,0,1.8l7.5,7.5c0.1,0.1,0.1,0.2,0.1,0.4s0,0.3-0.1,0.4
			c-0.2,0.2-0.5,0.2-0.7,0L3.3,8.2C3,8,2.7,7.9,2.4,7.9z"/>
	</g>
</g>
</svg>
