<?xml version="1.0" encoding="utf-8"?>
<!-- Generator: Adobe Illustrator 21.0.0, SVG Export Plug-In . SVG Version: 6.00 Build 0)  -->
<svg version="1.1" id="Layer_1" xmlns="http://www.w3.org/2000/svg" xmlns:xlink="http://www.w3.org/1999/xlink" x="0px" y="0px"
	 viewBox="0 0 24 24" style="enable-background:new 0 0 24 24;" xml:space="preserve">
<style type="text/css">
	.st0{fill:#FFFFFF;}
</style>
<g>
	<g>
		<path class="st0" d="M14.1,21.1H9.1c-2.5,0-4.5-2-4.5-4.5v-1.8L3,13.2c-0.9-0.9-0.9-2.3,0-3.2c0.3-0.3,0.8-0.6,1.2-0.6
			C3.7,8.5,3.8,7.3,4.5,6.5c0.7-0.7,1.8-0.8,2.6-0.4c0.1-0.5,0.3-0.9,0.6-1.3c0.9-0.9,2.2-0.9,3.1-0.1c0.1-0.4,0.3-0.8,0.6-1.2
			c0.9-0.9,2.3-0.9,3.2,0l5,5c1.2,1.2,1.9,2.9,1.9,4.6s-0.7,3.4-1.9,4.6l-1.8,1.8C16.9,20.6,15.5,21.1,14.1,21.1z M5.6,15.8v0.8
			c0,1.9,1.6,3.5,3.5,3.5h4.9c1.2,0,2.3-0.5,3.2-1.3L19,17c1-1,1.6-2.4,1.6-3.9s-0.6-2.9-1.6-3.9l-5-5c-0.5-0.5-1.3-0.5-1.8,0
			c-0.5,0.5-0.5,1.3,0,1.8l0.2,0.2c0.1,0.1,0.1,0.2,0.1,0.4s0,0.3-0.1,0.4c-0.2,0.2-0.5,0.2-0.7,0l-1.5-1.5C9.8,5,9,5,8.5,5.5
			C8.3,5.7,8.1,6.1,8.1,6.4S8.3,7,8.5,7.3L10,8.8c0.1,0.1,0.1,0.2,0.1,0.4s0,0.3-0.1,0.4c-0.2,0.2-0.5,0.2-0.7,0L7,7.2
			c-0.5-0.5-1.3-0.5-1.8,0S4.7,8.5,5.2,9l2.2,2.2c0.1,0.1,0.1,0.2,0.1,0.4s0,0.3-0.1,0.4c-0.2,0.2-0.5,0.2-0.7,0l-1.2-1.2
			c-0.5-0.5-1.3-0.5-1.8,0c-0.2,0.2-0.4,0.6-0.4,0.9s0.1,0.7,0.4,0.9l3.7,3.7c0.1,0.1,0.1,0.2,0.1,0.4s0,0.3-0.1,0.4
			c-0.2,0.2-0.5,0.2-0.7,0L5.6,15.8z"/>
	</g>
</g>
</svg>
